<svg xmlns="http://www.w3.org/2000/svg" viewBox="0 0 24 24" width="200" height="150">
  <defs>
    <linearGradient id="gradient" x1="0%" y1="0%" x2="100%" y2="100%">
      <stop offset="0%" style="stop-color:#4F46E5"/>
      <stop offset="100%" style="stop-color:#7C3AED"/>
    </linearGradient>
  </defs>
  <path fill="url(#gradient)" d="M12 1a9 9 0 0 0-9 9v7a3 3 0 0 0 3 3h3v-8H5v-2a7 7 0 1 1 14 0v2h-4v8h3a3 3 0 0 0 3-3v-7a9 9 0 0 0-9-9zM5 12h2v6H6a1 1 0 0 1-1-1v-5zm12 6v-6h2v5a1 1 0 0 1-1 1h-1z"/>
</svg>