<svg xmlns="http://www.w3.org/2000/svg" viewBox="0 0 24 24" width="200" height="150">
  <defs>
    <linearGradient id="gradient" x1="0%" y1="0%" x2="100%" y2="100%">
      <stop offset="0%" style="stop-color:#10B981"/>
      <stop offset="100%" style="stop-color:#059669"/>
    </linearGradient>
  </defs>
  <path fill="url(#gradient)" d="M16 0H8a2 2 0 00-2 2v2.15c-.39.09-.77.22-1.14.37L4.2 3.86a2 2 0 00-2.83 0L0 5.24a2 2 0 000 2.83l.66.66c-.15.37-.28.75-.37 1.14H0a2 2 0 00-2 2v3.17a2 2 0 002 2h.29c.09.39.22.77.37 1.14l-.66.66a2 2 0 000 2.83l1.37 1.37a2 2 0 002.83 0l.66-.66c.37.15.75.28 1.14.37V22a2 2 0 002 2h8a2 2 0 002-2v-2.15c.39-.09.77-.22 1.14-.37l.66.66a2 2 0 002.83 0l1.37-1.37a2 2 0 000-2.83l-.66-.66c.15-.37.28-.75.37-1.14H24a2 2 0 002-2V8.83a2 2 0 00-2-2h-.29c-.09-.39-.22-.77-.37-1.14l.66-.66a2 2 0 000-2.83l-1.37-1.37a2 2 0 00-2.83 0l-.66.66c-.37-.15-.75-.28-1.14-.37V2a2 2 0 00-2-2zm-4 18a6 6 0 110-12 6 6 0 010 12z"/>
  <circle fill="#fff" cx="12" cy="12" r="4"/>
</svg>