<svg xmlns="http://www.w3.org/2000/svg" viewBox="0 0 24 24" width="200" height="150">
  <defs>
    <linearGradient id="gradient" x1="0%" y1="0%" x2="100%" y2="100%">
      <stop offset="0%" style="stop-color:#F59E0B"/>
      <stop offset="100%" style="stop-color:#D97706"/>
    </linearGradient>
  </defs>
  <path fill="url(#gradient)" d="M18 2H6a2 2 0 00-2 2v16a2 2 0 002 2h12a2 2 0 002-2V4a2 2 0 00-2-2zm-6 17a5 5 0 110-10 5 5 0 010 10zm0-12a1.5 1.5 0 110-3 1.5 1.5 0 010 3z"/>
  <circle fill="#fff" cx="12" cy="12" r="3"/>
  <circle fill="#fff" cx="12" cy="5" r="1"/>
</svg>